<?xml version="1.0" encoding="UTF-8" standalone="no"?>
<!DOCTYPE svg PUBLIC "-//W3C//DTD SVG 1.1//EN"
 "http://www.w3.org/Graphics/SVG/1.1/DTD/svg11.dtd">
<!-- Generated by graphviz version 2.38.0 (20140413.2041)
 -->
<!-- Title: G Pages: 1 -->
<svg width="357pt" height="294pt"
 viewBox="0.00 0.00 356.99 294.00" xmlns="http://www.w3.org/2000/svg" xmlns:xlink="http://www.w3.org/1999/xlink">
<g id="graph0" class="graph" transform="scale(1 1) rotate(0) translate(4 290)">
<title>G</title>
<polygon fill="white" stroke="none" points="-4,4 -4,-290 352.987,-290 352.987,4 -4,4"/>
<g id="clust1" class="cluster"><title>cluster_Global</title>
<path fill="none" stroke="gray" d="M48.4937,-44C48.4937,-44 328.987,-44 328.987,-44 334.987,-44 340.987,-50 340.987,-56 340.987,-56 340.987,-266 340.987,-266 340.987,-272 334.987,-278 328.987,-278 328.987,-278 48.4937,-278 48.4937,-278 42.4937,-278 36.4937,-272 36.4937,-266 36.4937,-266 36.4937,-56 36.4937,-56 36.4937,-50 42.4937,-44 48.4937,-44"/>
<text text-anchor="middle" x="188.74" y="-265.2" font-family="Times,serif" font-size="11.00" fill="gray">Global</text>
</g>
<!-- \\XmlDomConstruct -->
<g id="node1" class="node"><title>\\XmlDomConstruct</title>
<polygon fill="none" stroke="black" points="332.987,-88 214.987,-88 214.987,-52 332.987,-52 332.987,-88"/>
<text text-anchor="middle" x="273.987" y="-67.2" font-family="Courier,monospace" font-size="11.00">XmlDomConstruct</text>
</g>
<!-- \\DOMDocument -->
<g id="node6" class="node"><title>\\DOMDocument</title>
<ellipse fill="none" stroke="black" cx="71.4937" cy="-18" rx="71.4873" ry="18"/>
<text text-anchor="middle" x="71.4937" y="-14.3" font-family="Times,serif" font-size="14.00" fill="gray">\DOMDocument</text>
</g>
<!-- \\XmlDomConstruct&#45;&gt;\\DOMDocument -->
<g id="edge1" class="edge"><title>\\XmlDomConstruct&#45;&gt;\\DOMDocument</title>
<path fill="none" stroke="black" d="M214.727,-54.8896C188.687,-48.1358 158.033,-40.1855 131.864,-33.3983"/>
<polygon fill="none" stroke="black" points="132.631,-29.9816 122.073,-30.8589 130.874,-36.7574 132.631,-29.9816"/>
</g>
<!-- \\xcp -->
<g id="node2" class="node"><title>\\xcp</title>
<polygon fill="none" stroke="black" points="98.4937,-196 44.4937,-196 44.4937,-160 98.4937,-160 98.4937,-196"/>
<text text-anchor="middle" x="71.4937" y="-175.2" font-family="Courier,monospace" font-size="11.00">xcp</text>
</g>
<!-- \\xcp_leaver -->
<g id="node3" class="node"><title>\\xcp_leaver</title>
<polygon fill="none" stroke="black" points="315.987,-250 231.987,-250 231.987,-214 315.987,-214 315.987,-250"/>
<text text-anchor="middle" x="273.987" y="-229.2" font-family="Courier,monospace" font-size="11.00">xcp_leaver</text>
</g>
<!-- \\xcp_leaver&#45;&gt;\\xcp -->
<g id="edge2" class="edge"><title>\\xcp_leaver&#45;&gt;\\xcp</title>
<path fill="none" stroke="black" d="M231.931,-220.942C195.54,-211.141 142.936,-196.973 108.243,-187.629"/>
<polygon fill="none" stroke="black" points="109.092,-184.233 98.5256,-185.011 107.271,-190.992 109.092,-184.233"/>
</g>
<!-- \\xcp_base -->
<g id="node4" class="node"><title>\\xcp_base</title>
<polygon fill="none" stroke="black" points="309.487,-196 238.487,-196 238.487,-160 309.487,-160 309.487,-196"/>
<text text-anchor="middle" x="273.987" y="-175.2" font-family="Courier,monospace" font-size="11.00">xcp_base</text>
</g>
<!-- \\xcp_base&#45;&gt;\\xcp -->
<g id="edge3" class="edge"><title>\\xcp_base&#45;&gt;\\xcp</title>
<path fill="none" stroke="black" d="M238.064,-178C201.916,-178 145.697,-178 108.982,-178"/>
<polygon fill="none" stroke="black" points="108.718,-174.5 98.7176,-178 108.718,-181.5 108.718,-174.5"/>
</g>
<!-- \\xcp_enumerator -->
<g id="node5" class="node"><title>\\xcp_enumerator</title>
<polygon fill="none" stroke="black" points="329.487,-142 218.487,-142 218.487,-106 329.487,-106 329.487,-142"/>
<text text-anchor="middle" x="273.987" y="-121.2" font-family="Courier,monospace" font-size="11.00">xcp_enumerator</text>
</g>
<!-- \\xcp_enumerator&#45;&gt;\\xcp -->
<g id="edge4" class="edge"><title>\\xcp_enumerator&#45;&gt;\\xcp</title>
<path fill="none" stroke="black" d="M218.466,-138.684C183.462,-148.112 138.99,-160.09 108.384,-168.333"/>
<polygon fill="none" stroke="black" points="107.315,-164.996 98.5697,-170.977 109.136,-171.756 107.315,-164.996"/>
</g>
</g>
</svg>
