<?xml version="1.0" encoding="UTF-8" standalone="no"?>
<!DOCTYPE svg PUBLIC "-//W3C//DTD SVG 1.1//EN"
 "http://www.w3.org/Graphics/SVG/1.1/DTD/svg11.dtd">
<!-- Generated by graphviz version 2.38.0 (20140413.2041)
 -->
<!-- Title: G Pages: 1 -->
<svg width="277pt" height="204pt"
 viewBox="0.00 0.00 277.00 204.00" xmlns="http://www.w3.org/2000/svg" xmlns:xlink="http://www.w3.org/1999/xlink">
<g id="graph0" class="graph" transform="scale(1 1) rotate(0) translate(4 200)">
<title>G</title>
<polygon fill="white" stroke="none" points="-4,4 -4,-200 273,-200 273,4 -4,4"/>
<g id="clust1" class="cluster"><title>cluster_Global</title>
<path fill="none" stroke="gray" d="M20,-8C20,-8 249,-8 249,-8 255,-8 261,-14 261,-20 261,-20 261,-176 261,-176 261,-182 255,-188 249,-188 249,-188 20,-188 20,-188 14,-188 8,-182 8,-176 8,-176 8,-20 8,-20 8,-14 14,-8 20,-8"/>
<text text-anchor="middle" x="134.5" y="-175.2" font-family="Times,serif" font-size="11.00" fill="gray">Global</text>
</g>
<!-- \\xcp -->
<g id="node1" class="node"><title>\\xcp</title>
<polygon fill="none" stroke="black" points="70,-106 16,-106 16,-70 70,-70 70,-106"/>
<text text-anchor="middle" x="43" y="-85.2" font-family="Courier,monospace" font-size="11.00">xcp</text>
</g>
<!-- \\xcp_leaver -->
<g id="node2" class="node"><title>\\xcp_leaver</title>
<polygon fill="none" stroke="black" points="239.5,-160 155.5,-160 155.5,-124 239.5,-124 239.5,-160"/>
<text text-anchor="middle" x="197.5" y="-139.2" font-family="Courier,monospace" font-size="11.00">xcp_leaver</text>
</g>
<!-- \\xcp_leaver&#45;&gt;\\xcp -->
<g id="edge1" class="edge"><title>\\xcp_leaver&#45;&gt;\\xcp</title>
<path fill="none" stroke="black" d="M155.231,-127.387C131.719,-119.061 102.54,-108.729 79.9677,-100.736"/>
<polygon fill="none" stroke="black" points="81.0154,-97.3942 70.4206,-97.3555 78.6788,-103.993 81.0154,-97.3942"/>
</g>
<!-- \\xcp_base -->
<g id="node3" class="node"><title>\\xcp_base</title>
<polygon fill="none" stroke="black" points="233,-106 162,-106 162,-70 233,-70 233,-106"/>
<text text-anchor="middle" x="197.5" y="-85.2" font-family="Courier,monospace" font-size="11.00">xcp_base</text>
</g>
<!-- \\xcp_base&#45;&gt;\\xcp -->
<g id="edge2" class="edge"><title>\\xcp_base&#45;&gt;\\xcp</title>
<path fill="none" stroke="black" d="M161.895,-88C137.597,-88 105.159,-88 80.4602,-88"/>
<polygon fill="none" stroke="black" points="80.3948,-84.5001 70.3948,-88 80.3948,-91.5001 80.3948,-84.5001"/>
</g>
<!-- \\xcp_enumerator -->
<g id="node4" class="node"><title>\\xcp_enumerator</title>
<polygon fill="none" stroke="black" points="253,-52 142,-52 142,-16 253,-16 253,-52"/>
<text text-anchor="middle" x="197.5" y="-31.2" font-family="Courier,monospace" font-size="11.00">xcp_enumerator</text>
</g>
<!-- \\xcp_enumerator&#45;&gt;\\xcp -->
<g id="edge3" class="edge"><title>\\xcp_enumerator&#45;&gt;\\xcp</title>
<path fill="none" stroke="black" d="M145.295,-52.1314C123.681,-59.7852 99.0456,-68.5085 79.4821,-75.4358"/>
<polygon fill="none" stroke="black" points="78.2979,-72.1421 70.0397,-78.7794 80.6345,-78.7407 78.2979,-72.1421"/>
</g>
</g>
</svg>
